# xmcd
#
# Track frame offsets: 
#        150
#        16221
#        34661
#        55081
#        83850
#        105660
#
# Disc length: 1723 seconds
#
# Revision: 0
# Processed by: cddbd v1.5.2PL0 Copyright (c) Steve Scherf et al.
# Submitted via: ExactAudioCopyFreeDBPlugin 1.0
#
DISCID=3d06b906
DTITLE=Buckshot Willie - Shot For Charlene
DYEAR=1900
DGENRE=Country
TTITLE0=Shot For Charlene
TTITLE1=Bury Me Beneath The Willow
TTITLE2=Candlelight Lounge
TTITLE3=Orange Blossom Special
TTITLE4=Loosen Your Love
TTITLE5=Tennesee Whiskey
EXTD=
EXTT0=
EXTT1=
EXTT2=
EXTT3=
EXTT4=
EXTT5=
PLAYORDER=
